<svg xmlns="http://www.w3.org/2000/svg" xmlns:xlink="http://www.w3.org/1999/xlink" width="1600" zoomAndPan="magnify" viewBox="0 0 1200 675.000002" height="900" preserveAspectRatio="xMidYMid meet" version="1.0"><defs><clipPath id="id1"><path d="M 351 342 L 849.011719 342 L 849.011719 476 L 351 476 Z M 351 342 " clip-rule="nonzero"/></clipPath><clipPath id="id2"><path d="M 393 135 L 813 135 L 813 576.796875 L 393 576.796875 Z M 393 135 " clip-rule="nonzero"/></clipPath></defs><path fill="rgb(89.7995%, 56.858826%, 49.798584%)" d="M 845.800781 407.574219 C 845.800781 441.847656 816.363281 471.972656 786.792969 471.972656 C 757.222656 471.972656 738.625 441.847656 738.625 407.574219 C 738.625 373.300781 762.574219 345.585938 792.28125 345.585938 C 821.714844 345.585938 845.800781 373.300781 845.800781 407.574219 Z M 354.34375 407.574219 C 354.34375 441.847656 383.78125 471.972656 413.351562 471.972656 C 442.921875 471.972656 461.519531 441.847656 461.519531 407.574219 C 461.519531 373.300781 437.570312 345.585938 407.867188 345.585938 C 378.160156 345.585938 354.34375 373.300781 354.34375 407.574219 Z M 354.34375 407.574219 " fill-opacity="1" fill-rule="nonzero"/><g clip-path="url(#id1)"><path fill="rgb(11.759949%, 7.449341%, 7.449341%)" d="M 786.660156 475.316406 C 771.675781 475.316406 758.160156 467.953125 748.660156 454.566406 C 739.828125 442.117188 735.011719 425.515625 735.011719 407.574219 C 735.011719 371.558594 760.570312 342.242188 792.011719 342.242188 C 823.457031 342.242188 849.011719 371.558594 849.011719 407.574219 C 849.011719 424.578125 841.921875 441.714844 829.746094 454.835938 C 817.703125 467.820312 801.914062 475.316406 786.660156 475.316406 Z M 792.144531 348.933594 C 764.449219 348.933594 741.835938 375.308594 741.835938 407.574219 C 741.835938 437.160156 757.625 468.625 786.660156 468.625 C 815.292969 468.625 842.320312 439.035156 842.320312 407.574219 C 842.457031 375.175781 819.84375 348.933594 792.144531 348.933594 Z M 413.351562 475.316406 C 398.097656 475.316406 382.441406 467.953125 370.265625 454.96875 C 358.089844 441.847656 351 424.578125 351 407.574219 C 351 371.558594 376.554688 342.242188 408 342.242188 C 439.441406 342.242188 465 371.558594 465 407.574219 C 465 425.378906 460.183594 442.117188 451.351562 454.566406 C 441.851562 467.953125 428.335938 475.316406 413.351562 475.316406 Z M 408 348.933594 C 380.300781 348.933594 357.691406 375.175781 357.691406 407.574219 C 357.691406 438.902344 384.71875 468.625 413.351562 468.625 C 442.519531 468.625 458.175781 437.160156 458.175781 407.574219 C 458.308594 375.175781 435.695312 348.933594 408 348.933594 Z M 408 348.933594 " fill-opacity="1" fill-rule="nonzero"/></g><path fill="rgb(89.7995%, 56.858826%, 49.798584%)" d="M 808.871094 339.429688 C 808.871094 403.558594 792.28125 455.503906 763.644531 493.925781 C 745.316406 518.5625 722.167969 537.707031 695.40625 550.960938 C 665.703125 565.6875 631.582031 573.183594 594.652344 573.183594 C 472.359375 573.183594 393.414062 491.652344 397.027344 335.414062 C 399.972656 213.179688 474.632812 138.339844 596.792969 138.339844 C 718.957031 138.339844 808.871094 217.0625 808.871094 339.429688 Z M 808.871094 339.429688 " fill-opacity="1" fill-rule="nonzero"/><path fill="rgb(100%, 100%, 100%)" d="M 688.582031 311.449219 C 659.683594 311.449219 637.203125 340.5 637.203125 375.042969 C 637.203125 409.582031 664.765625 426.988281 693.667969 426.988281 C 722.570312 426.988281 745.582031 401.953125 745.582031 367.542969 C 745.582031 333.136719 717.484375 311.449219 688.582031 311.449219 Z M 454.695312 369.417969 C 454.695312 403.960938 477.710938 428.863281 506.613281 428.863281 C 535.511719 428.863281 563.078125 411.324219 563.078125 376.914062 C 563.078125 342.507812 540.597656 313.320312 511.695312 313.320312 C 482.796875 313.320312 454.695312 334.875 454.695312 369.417969 Z M 454.695312 369.417969 " fill-opacity="1" fill-rule="nonzero"/><g clip-path="url(#id2)"><path fill="rgb(11.759949%, 7.449341%, 7.449341%)" d="M 594.789062 576.53125 C 536.582031 576.53125 487.613281 557.921875 453.089844 522.578125 C 412.414062 480.808594 391.808594 416.144531 393.816406 335.277344 C 395.15625 274.363281 414.554688 223.621094 449.878906 188.679688 C 485.335938 153.601562 536.046875 135.125 596.792969 135.125 C 657.539062 135.125 712.265625 154.808594 750.933594 190.6875 C 791.074219 227.773438 812.214844 279.316406 812.214844 339.5625 C 812.214844 401.550781 796.292969 455.636719 766.320312 496.070312 C 747.992188 520.835938 724.574219 540.382812 696.878906 554.039062 C 666.640625 568.902344 632.253906 576.53125 594.789062 576.53125 Z M 596.792969 141.6875 C 476.773438 141.6875 403.316406 214.117188 400.507812 335.414062 C 398.632812 414.402344 418.4375 477.460938 457.90625 517.757812 C 490.957031 551.898438 538.324219 569.839844 594.789062 569.839844 C 631.316406 569.839844 664.632812 562.472656 694.070312 547.882812 C 720.828125 534.628906 743.308594 515.75 761.105469 491.917969 C 790.273438 452.691406 805.660156 399.941406 805.660156 339.429688 C 805.527344 223.085938 719.757812 141.6875 596.792969 141.6875 Z M 596.792969 141.6875 " fill-opacity="1" fill-rule="nonzero"/></g><path fill="rgb(11.759949%, 7.449341%, 7.449341%)" d="M 742.105469 351.078125 C 740.632812 351.078125 739.429688 350.140625 738.894531 348.800781 C 738.492188 347.730469 730.0625 322.15625 701.292969 316.265625 C 673.328125 310.511719 654.0625 325.773438 648.175781 342.375 C 647.503906 344.113281 645.632812 345.050781 643.894531 344.382812 C 642.152344 343.714844 641.21875 341.839844 641.886719 340.097656 C 648.84375 320.953125 670.789062 303.148438 702.632812 309.707031 C 735.414062 316.402344 744.914062 345.453125 745.316406 346.660156 C 745.851562 348.398438 744.914062 350.273438 743.175781 350.808594 C 742.773438 351.078125 742.503906 351.078125 742.105469 351.078125 Z M 692.195312 332.066406 C 691.792969 332.066406 691.394531 332.066406 690.992188 332.066406 C 690.457031 332.066406 690.054688 332.066406 689.519531 332.066406 C 668.78125 332.867188 652.054688 349.871094 652.054688 370.890625 L 652.054688 371.023438 C 652.054688 371.960938 652.054688 372.898438 652.1875 373.703125 C 653.527344 393.652344 669.851562 409.449219 689.921875 409.984375 C 690.324219 409.984375 690.589844 409.984375 690.992188 409.984375 C 691.394531 409.984375 691.929688 409.984375 692.328125 409.984375 C 712.800781 409.316406 729.257812 392.847656 729.929688 372.363281 C 729.929688 371.960938 729.929688 371.425781 729.929688 371.023438 L 729.929688 370.890625 C 730.0625 349.871094 713.203125 332.601562 692.195312 332.066406 Z M 461.253906 350.539062 C 461.386719 350.273438 469.949219 323.898438 498.851562 318.007812 C 526.816406 312.25 546.082031 327.511719 551.972656 344.113281 C 552.640625 345.855469 554.511719 346.792969 556.253906 346.121094 C 557.992188 345.453125 558.929688 343.578125 558.257812 341.839844 C 551.300781 322.695312 529.359375 304.886719 497.511719 311.449219 C 464.730469 318.140625 455.230469 347.195312 454.832031 348.53125 C 454.296875 350.273438 455.230469 352.148438 456.972656 352.683594 C 457.371094 352.816406 457.640625 352.816406 458.042969 352.816406 C 459.511719 352.949219 460.851562 352.011719 461.253906 350.539062 Z M 470.082031 372.765625 L 470.082031 372.898438 C 470.082031 373.300781 470.082031 373.835938 470.082031 374.238281 C 470.753906 394.722656 487.210938 411.1875 507.683594 411.859375 C 508.082031 411.859375 508.617188 411.859375 509.019531 411.859375 C 509.421875 411.859375 509.6875 411.859375 510.089844 411.859375 C 530.160156 411.324219 546.484375 395.523438 547.824219 375.578125 C 547.957031 374.640625 547.957031 373.835938 547.957031 372.898438 L 547.957031 372.765625 C 547.824219 351.746094 531.230469 334.742188 510.492188 333.941406 C 509.957031 333.941406 509.554688 333.941406 509.019531 333.941406 C 508.617188 333.941406 508.21875 333.941406 507.816406 333.941406 C 486.941406 334.476562 470.21875 351.613281 470.082031 372.765625 Z M 652.1875 281.191406 C 652.457031 280.519531 657.675781 265.929688 677.609375 263.785156 C 697.546875 261.511719 707.582031 278.246094 707.984375 278.914062 C 709.589844 281.859375 713.335938 282.796875 716.144531 281.191406 C 719.089844 279.585938 720.027344 275.835938 718.421875 273.023438 C 717.886719 272.085938 704.238281 248.792969 676.273438 251.871094 C 648.441406 254.949219 641.082031 276.636719 640.816406 277.574219 C 639.746094 280.65625 641.484375 284.136719 644.5625 285.074219 C 645.230469 285.339844 645.898438 285.339844 646.433594 285.339844 C 648.976562 285.207031 651.386719 283.601562 652.1875 281.191406 Z M 555.582031 284.9375 C 558.792969 283.867188 560.402344 280.519531 559.464844 277.308594 C 559.195312 276.371094 551.835938 254.816406 524.007812 251.601562 C 496.175781 248.523438 482.527344 271.683594 481.859375 272.757812 C 480.253906 275.566406 481.1875 279.316406 484.132812 280.921875 C 486.941406 282.53125 490.6875 281.59375 492.296875 278.78125 C 492.695312 278.109375 502.730469 261.375 522.667969 263.652344 C 542.472656 265.929688 547.824219 280.386719 548.089844 281.058594 C 548.894531 283.601562 551.300781 285.207031 553.84375 285.207031 C 554.246094 285.207031 554.914062 285.207031 555.582031 284.9375 Z M 695.40625 449.210938 C 690.722656 451.085938 684.570312 453.09375 677.074219 455.234375 C 675.605469 459.789062 664.230469 486.699219 602.28125 486.699219 C 535.511719 486.699219 528.824219 458.984375 528.554688 458.179688 C 520.660156 456.84375 514.238281 455.371094 509.421875 454.164062 C 504.472656 452.960938 499.921875 457.242188 501.261719 461.929688 C 505.941406 477.726562 517.71875 507.449219 544.210938 526.191406 C 559.328125 536.902344 579.265625 544.265625 605.359375 543.464844 C 629.578125 542.792969 648.039062 535.429688 662.222656 524.988281 C 689.386719 504.90625 700.222656 473.578125 704.371094 456.441406 C 705.574219 451.488281 700.359375 447.335938 695.40625 449.210938 Z M 628.90625 436.226562 C 630.914062 435.6875 632.117188 433.816406 631.582031 432.074219 C 629.308594 425.246094 620.746094 412.261719 603.886719 412.261719 C 583.011719 412.261719 575.921875 431.136719 575.652344 431.941406 C 574.984375 433.679688 576.1875 435.554688 578.195312 436.089844 C 580.203125 436.625 582.34375 435.6875 583.011719 433.949219 C 583.28125 433.28125 588.765625 418.953125 603.886719 418.953125 C 619.003906 418.953125 623.957031 433.28125 624.089844 433.816406 C 624.625 435.289062 626.097656 436.226562 627.835938 436.226562 C 628.238281 436.359375 628.503906 436.359375 628.90625 436.226562 Z M 628.90625 436.226562 " fill-opacity="1" fill-rule="nonzero"/><path fill="rgb(11.759949%, 7.449341%, 7.449341%)" d="M 778.632812 229.914062 C 805.792969 245.042969 813.152344 224.15625 769.398438 174.753906 C 721.097656 119.996094 649.648438 122.808594 649.648438 122.808594 C 614.992188 97.773438 561.335938 119.195312 561.335938 119.195312 C 483.867188 116.917969 377.625 195.238281 403.585938 219.875 C 411.078125 226.96875 419.507812 227.90625 427.800781 225.628906 C 396.625 268.875 398.367188 357.769531 398.367188 357.769531 C 399.835938 359.109375 401.441406 360.3125 403.050781 361.386719 C 409.070312 365.535156 417.367188 361.652344 418.167969 354.289062 C 422.585938 310.644531 443.324219 262.445312 452.691406 242.5 C 454.832031 243.4375 457.773438 244.105469 461.65625 244.105469 C 497.246094 244.105469 516.648438 205.816406 516.648438 205.816406 C 516.648438 205.816406 507.148438 235.9375 531.230469 232.726562 C 555.316406 229.511719 559.0625 203.539062 559.0625 203.539062 C 559.0625 203.539062 573.648438 241.828125 596.929688 242.230469 C 620.210938 242.632812 603.082031 211.707031 603.082031 211.707031 C 603.082031 211.707031 625.160156 238.617188 655.667969 237.679688 C 686.175781 236.742188 665.167969 199.789062 665.167969 199.789062 C 665.167969 199.789062 699.824219 236.207031 738.625 244.507812 C 747.054688 246.246094 753.34375 246.382812 757.894531 245.308594 C 768.597656 269.140625 786.390625 313.992188 789.335938 354.15625 C 789.738281 359.109375 795.222656 362.054688 799.503906 359.511719 C 802.449219 357.769531 805.660156 355.628906 808.605469 353.085938 C 808.605469 353.085938 810.878906 270.480469 778.632812 229.914062 Z M 463.261719 200.59375 C 463.125 200.59375 462.992188 200.59375 462.859375 200.726562 C 464.0625 199.390625 465.132812 198.183594 465.9375 197.246094 C 465.265625 198.050781 464.332031 199.253906 463.261719 200.59375 Z M 463.261719 200.59375 " fill-opacity="1" fill-rule="nonzero"/><path fill="rgb(95.689392%, 86.669922%, 43.139648%)" d="M 716.949219 371.292969 C 716.949219 371.695312 716.949219 371.960938 716.949219 372.230469 C 699.6875 376.246094 693.933594 389.902344 692.0625 397.132812 C 691.792969 397.132812 691.527344 397.132812 691.257812 397.132812 C 690.992188 397.132812 690.722656 397.132812 690.589844 397.132812 C 687.378906 380.933594 673.0625 376.246094 665.570312 373.167969 C 665.570312 372.632812 665.433594 371.960938 665.433594 371.425781 L 665.433594 371.292969 C 682.027344 369.550781 688.046875 354.421875 690.1875 345.585938 C 690.457031 345.585938 690.859375 345.585938 691.125 345.585938 C 691.394531 345.585938 691.660156 345.585938 691.929688 345.585938 C 695.140625 366.070312 709.054688 370.488281 716.949219 371.292969 Z M 483.0625 372.765625 C 483.0625 373.167969 483.0625 373.433594 483.0625 373.703125 C 500.324219 377.71875 506.078125 391.375 507.949219 398.605469 C 508.21875 398.605469 508.484375 398.605469 508.753906 398.605469 C 509.019531 398.605469 509.289062 398.605469 509.421875 398.605469 C 511.964844 378.921875 526.949219 377.71875 534.441406 374.640625 C 534.441406 374.105469 534.578125 373.433594 534.578125 372.898438 L 534.578125 372.765625 C 517.984375 371.023438 511.964844 355.894531 509.824219 347.058594 C 509.554688 347.058594 509.152344 347.058594 508.886719 347.058594 C 508.617188 347.058594 508.351562 347.058594 508.082031 347.058594 C 504.871094 367.542969 490.957031 371.960938 483.0625 372.765625 Z M 483.0625 372.765625 " fill-opacity="1" fill-rule="nonzero"/><path fill="rgb(100%, 100%, 100%)" d="M 676.941406 455.234375 C 675.46875 459.789062 664.097656 486.699219 602.148438 486.699219 C 535.378906 486.699219 528.6875 458.984375 528.421875 458.179688 C 545.949219 461.261719 571.105469 464.070312 603.351562 464.070312 C 635.328125 464.207031 659.816406 459.921875 676.941406 455.234375 Z M 676.941406 455.234375 " fill-opacity="1" fill-rule="nonzero"/><path fill="rgb(68.629456%, 24.708557%, 24.708557%)" d="M 662.359375 524.988281 C 648.308594 535.429688 629.710938 542.792969 605.492188 543.464844 C 579.398438 544.265625 559.464844 537.039062 544.34375 526.191406 C 551.035156 508.921875 575.117188 496.070312 603.617188 496.070312 C 631.449219 496.203125 654.863281 508.386719 662.359375 524.988281 Z M 747.992188 406.769531 C 730.464844 406.769531 716.144531 420.960938 716.144531 438.632812 C 716.144531 456.308594 730.328125 470.5 747.992188 470.5 C 765.519531 470.5 779.835938 456.308594 779.835938 438.632812 C 779.835938 420.960938 765.519531 406.769531 747.992188 406.769531 Z M 449.746094 406.769531 C 432.21875 406.769531 417.902344 420.960938 417.902344 438.632812 C 417.902344 456.308594 432.085938 470.5 449.746094 470.5 C 467.40625 470.5 481.589844 456.308594 481.589844 438.632812 C 481.589844 420.960938 467.273438 406.769531 449.746094 406.769531 Z M 449.746094 406.769531 " fill-opacity="1" fill-rule="nonzero"/></svg>