<svg xmlns="http://www.w3.org/2000/svg" xmlns:xlink="http://www.w3.org/1999/xlink" width="1600" zoomAndPan="magnify" viewBox="0 0 1200 675.000002" height="900" preserveAspectRatio="xMidYMid meet" version="1.0"><defs><clipPath id="id1"><path d="M 660 486.34375 L 781.648438 486.34375 L 781.648438 625 L 660 625 Z M 660 486.34375 " clip-rule="nonzero"/></clipPath></defs><path fill="rgb(92.158508%, 66.268921%, 72.938538%)" d="M 769.816406 489.070312 L 721.65625 489.070312 L 721.035156 487.902344 C 720.867188 487.582031 720.679688 487.21875 720.5 486.878906 L 722.972656 486.878906 C 721.425781 483.953125 719.613281 480.4375 717.589844 476.453125 C 717.179688 477.089844 716.683594 477.757812 716.136719 478.421875 C 715.96875 478.089844 715.8125 477.785156 715.636719 477.449219 L 715.21875 476.453125 C 715.816406 475.859375 716.386719 475.300781 716.871094 474.816406 C 717.394531 474.257812 717.847656 473.804688 718.0625 473.445312 C 718.132812 473.296875 718.265625 473.234375 718.273438 473.074219 C 718.308594 472.949219 718.320312 472.878906 718.320312 472.878906 C 718.34375 472.769531 718.441406 472.710938 718.546875 472.691406 C 718.328125 471.628906 717.664062 470.257812 716.65625 468.652344 C 716.253906 468.007812 715.78125 467.324219 715.269531 466.613281 L 716.398438 466.476562 C 718.347656 466.246094 720.230469 465.941406 721.84375 465.597656 C 727.132812 464.484375 728.769531 463.867188 731.035156 463.015625 C 731.597656 462.804688 732.199219 462.578125 732.890625 462.328125 C 739.800781 459.855469 745.652344 457.496094 747.332031 453.695312 C 748.003906 452.175781 748.015625 451.285156 747.796875 450.953125 C 747.570312 450.605469 746.65625 450.191406 744.839844 450.191406 C 742.59375 450.191406 740.09375 450.804688 738.640625 451.328125 C 737.703125 451.667969 736.816406 451.769531 736.152344 451.820312 L 734.25 451.96875 L 733.910156 450.378906 L 732.980469 448.515625 L 735.089844 447.59375 C 737.921875 446.351562 740.398438 444.9375 742.449219 443.390625 C 748.027344 439.175781 751.03125 435.082031 750.71875 433.554688 C 750.617188 433.078125 749.785156 432.601562 748.484375 432.28125 C 748.101562 432.1875 747.667969 432.136719 747.207031 432.136719 C 746.125 432.136719 744.816406 432.402344 743.328125 432.925781 L 741.234375 433.652344 L 740.644531 431.875 L 739.523438 430.304688 L 741.292969 429.035156 C 742.023438 428.511719 742.738281 427.972656 743.414062 427.386719 C 744.976562 426.027344 746.816406 424.234375 747.183594 422.441406 C 747.457031 421.09375 747.246094 419.949219 746.578125 419.125 C 745.898438 418.289062 744.761719 417.8125 743.460938 417.8125 C 742.761719 417.8125 742.050781 417.945312 741.339844 418.210938 C 738.679688 419.191406 735.8125 420.582031 732.320312 422.59375 L 730.308594 423.75 L 729.347656 421.820312 L 728.210938 420.125 L 729.953125 418.890625 C 732.691406 416.949219 734.425781 415.140625 735.253906 413.359375 C 736.207031 411.320312 736.070312 410.417969 735.90625 410.054688 C 735.648438 409.484375 734.769531 409.136719 733.929688 408.898438 C 733.585938 408.773438 733.144531 408.707031 732.621094 408.707031 C 727.429688 408.707031 717.257812 414.53125 709.828125 418.78125 C 705.566406 421.21875 701.882812 423.328125 699.417969 424.253906 L 694.320312 426.179688 L 697.417969 419.71875 C 699.753906 414.910156 702.171875 409.941406 700.121094 406.960938 C 700.078125 406.898438 699.699219 406.664062 698.6875 406.664062 C 697.371094 406.664062 695.757812 407.070312 694.746094 407.46875 C 692.03125 408.539062 689.902344 410.660156 687.84375 414.339844 L 685.839844 417.933594 L 684.714844 415.707031 C 685.109375 414.878906 685.503906 414.046875 685.933594 413.273438 C 667.886719 377.582031 648.71875 341.171875 638.363281 328.398438 C 627.390625 314.871094 618.414062 303.46875 602.804688 295.015625 C 598.472656 292.667969 593.921875 291.085938 589.394531 290.304688 C 590.195312 291.175781 591.21875 292.152344 592.351562 293.191406 C 591.25 292.902344 590.136719 292.65625 589.015625 292.460938 L 588.289062 292.332031 L 587.785156 291.785156 C 587.714844 291.714844 587.660156 291.644531 587.589844 291.570312 C 587.554688 290.054688 587.515625 288.632812 587.488281 287.382812 L 587.488281 287.378906 C 587.488281 287.378906 591.253906 282.636719 586.804688 281.261719 C 586.796875 281.257812 586.792969 281.253906 586.785156 281.253906 C 586.074219 281.539062 585.390625 281.933594 584.710938 282.375 L 584.628906 281.453125 L 584.453125 279.207031 L 584.027344 278.066406 L 586.136719 277.328125 C 594.058594 274.554688 601.441406 270.847656 608.054688 266.328125 C 629.109375 251.558594 638.019531 227.957031 631.300781 204.742188 C 628.09375 193.65625 625.464844 175.472656 626.617188 164.230469 C 626.863281 161.820312 627.039062 159.285156 627.148438 156.480469 L 627.164062 156.117188 L 627.296875 155.773438 C 627.597656 155.003906 627.882812 154.242188 628.140625 153.550781 C 628.582031 152.371094 628.953125 151.390625 629.191406 150.882812 L 634.242188 140.417969 C 636.773438 135.140625 639.394531 129.6875 641.144531 124.097656 C 644.886719 112.121094 643.679688 100.011719 637.835938 90.875 C 632.269531 82.175781 626.6875 77.441406 620.269531 75.984375 C 617.539062 75.359375 612.65625 75.074219 607.933594 74.796875 C 601.734375 74.441406 595.328125 74.0625 591.695312 72.890625 C 584.976562 70.730469 580.261719 65.046875 575.707031 59.546875 C 572.054688 55.144531 568.605469 50.984375 564.332031 48.691406 C 558.921875 45.785156 552.710938 44.253906 546.367188 44.253906 C 538.285156 44.253906 530.378906 46.777344 524.109375 51.367188 C 520.695312 53.863281 517.480469 56.886719 514.375 59.8125 C 508.359375 65.476562 502.132812 71.335938 493.804688 74.207031 C 487.105469 76.515625 480.164062 76.550781 473.445312 76.59375 C 465.347656 76.640625 457.691406 76.679688 450.65625 80.4375 C 439.820312 86.511719 437.574219 92.984375 436.628906 105.257812 C 436.316406 108.269531 436.277344 111.414062 436.230469 114.453125 C 436.167969 118.753906 436.105469 123.199219 435.3125 127.574219 C 434.359375 132.839844 431.429688 136.609375 428.597656 140.25 C 426.726562 142.652344 424.964844 144.921875 423.769531 147.574219 C 420.75 154.246094 422.550781 162.238281 428.609375 168.980469 C 433.957031 175.152344 439.292969 179.847656 443.347656 183.238281 L 444.816406 184.539062 L 443.738281 186.167969 C 439.703125 192.082031 439.003906 198.144531 441.671875 204.191406 C 445.835938 213.632812 458.410156 222.082031 470.933594 223.839844 L 472.078125 224 L 473.59375 227.074219 C 477.789062 235.617188 481.761719 243.683594 486.949219 250.863281 L 488.25 252.667969 L 487.589844 253.132812 C 487.929688 256.625 488.09375 260.070312 488.085938 263.386719 L 488.085938 264.289062 L 487.824219 264.546875 C 487.1875 264.15625 486.550781 263.765625 485.90625 263.371094 L 485.898438 263.378906 C 485.851562 263.425781 481.863281 267.410156 481.65625 270.628906 C 481.585938 271.730469 483.105469 273.476562 483.109375 273.476562 L 483.113281 273.476562 C 483.113281 273.476562 484.085938 273.835938 485.777344 274.503906 L 484.164062 275.394531 C 483.894531 275.546875 457.855469 289.992188 447.984375 302.023438 C 445.164062 303.820312 442.59375 306.308594 440.332031 309.570312 C 439.480469 310.789062 438.660156 312.082031 437.90625 313.523438 C 434.804688 319.421875 432.578125 326.339844 431.113281 333.660156 C 429.242188 342.996094 428.636719 353.011719 429.136719 362.5 C 429.128906 362.566406 429.125 362.625 429.121094 362.691406 C 426.738281 403.308594 433.195312 444.4375 439.441406 484.207031 C 440.050781 488.105469 440.664062 491.996094 441.265625 495.882812 C 445.605469 523.871094 447.050781 552.519531 448.160156 579.460938 C 448.316406 583.226562 447.949219 587.472656 447.5625 591.964844 C 446.511719 604.183594 445.320312 618.03125 455.085938 624.273438 C 457.003906 625.496094 465.828125 627.550781 503.410156 627.550781 C 533.75 627.550781 572.492188 626.277344 603.621094 625.25 C 624.371094 624.566406 642.289062 623.976562 651.660156 623.976562 C 654.855469 623.976562 657.65625 623.585938 659.976562 622.8125 L 660.308594 622.703125 L 769.816406 622.703125 C 775.316406 622.703125 779.464844 618.296875 779.464844 612.449219 L 779.464844 499.878906 C 779.464844 493.914062 775.132812 489.070312 769.816406 489.070312 " fill-opacity="1" fill-rule="nonzero"/><path fill="rgb(92.158508%, 66.268921%, 72.938538%)" d="M 587.496094 287.378906 C 587.503906 287.683594 587.699219 288.09375 588 288.554688 C 587.6875 287.824219 587.5 287.398438 587.496094 287.378906 " fill-opacity="1" fill-rule="nonzero"/><path fill="rgb(75.289917%, 34.509277%, 37.649536%)" d="M 679.707031 427.367188 C 679.683594 427.34375 679.652344 427.304688 679.628906 427.269531 C 679.496094 427.105469 679.339844 426.878906 679.050781 426.703125 C 678.738281 426.433594 678.324219 426.195312 677.824219 425.953125 C 677.324219 425.722656 676.742188 425.492188 676.097656 425.347656 C 673.503906 424.667969 670.019531 424.691406 666.636719 425.042969 C 663.246094 425.429688 659.933594 426.152344 657.484375 426.835938 C 655.109375 427.5 653.5625 428.09375 653.46875 428.128906 C 647.4375 394.039062 638.933594 359.714844 623.15625 329.863281 C 618.484375 321.039062 612.976562 312.726562 606.363281 305.238281 C 604.285156 302.886719 593.746094 295.015625 589.394531 290.292969 C 588.894531 289.757812 588.464844 289.257812 588.15625 288.8125 C 588.089844 288.71875 588.054688 288.640625 587.996094 288.554688 C 587.699219 288.09375 587.5 287.6875 587.488281 287.378906 C 587.488281 287.375 587.488281 287.375 587.488281 287.371094 C 587.488281 287.371094 587.488281 287.375 587.488281 287.375 C 587.617188 293.351562 587.894531 302.585938 588.226562 312.71875 C 588.25 313.460938 588.273438 314.214844 588.300781 314.96875 C 589.121094 339.871094 590.214844 369.109375 590.214844 369.109375 C 590.214844 369.109375 570.964844 340.316406 546.367188 314.996094 C 545.320312 313.921875 544.265625 312.847656 543.199219 311.785156 C 538.132812 306.730469 532.875 301.875 527.53125 297.484375 C 510.542969 283.527344 483.109375 273.46875 483.109375 273.46875 L 483.105469 273.472656 C 483.046875 273.5 455.203125 288.898438 445.5625 301.53125 C 443.621094 304.082031 441.886719 306.777344 440.328125 309.558594 C 449.578125 296.207031 464.035156 295.617188 479.527344 304.011719 C 495.128906 312.464844 507.039062 328.007812 518.003906 341.539062 C 538.339844 366.617188 562.355469 424.515625 586.628906 446.113281 C 603.027344 442.339844 631.910156 433.046875 653.304688 428.449219 C 653.339844 428.566406 653.429688 428.65625 653.554688 428.648438 C 653.554688 428.648438 653.980469 428.640625 654.71875 428.574219 C 655.453125 428.511719 656.503906 428.410156 657.761719 428.289062 C 660.246094 427.996094 663.5625 427.609375 666.875 427.21875 C 670.160156 426.863281 673.457031 426.578125 675.84375 426.785156 C 676.445312 426.832031 676.980469 426.914062 677.449219 427.007812 C 677.917969 427.113281 678.316406 427.234375 678.613281 427.394531 C 679.230469 427.664062 679.519531 427.953125 679.535156 427.9375 C 679.625 428.039062 679.773438 428.054688 679.878906 427.96875 C 679.878906 427.964844 679.878906 427.964844 679.878906 427.964844 C 679.980469 427.875 679.996094 427.726562 679.910156 427.625 C 679.914062 427.625 679.839844 427.539062 679.707031 427.367188 " fill-opacity="1" fill-rule="nonzero"/><path fill="rgb(75.289917%, 34.509277%, 37.649536%)" d="M 666.847656 526.308594 C 666.640625 524.121094 666.402344 521.929688 666.179688 519.738281 C 666.015625 518.140625 665.863281 516.542969 665.695312 514.945312 C 618.960938 542.847656 552.351562 567.125 513.285156 525.152344 C 485.9375 495.75 463.058594 456.542969 446.984375 421.539062 C 441.859375 410.375 437.378906 398.851562 433.464844 387.199219 C 428.609375 372.738281 427.453125 351.898438 431.113281 333.65625 C 428.28125 345.070312 427.335938 355.730469 426.933594 362.550781 C 424.300781 407.359375 432.269531 452.125 439.101562 496.214844 C 443.390625 523.867188 444.820312 551.640625 445.972656 579.546875 C 446.554688 593.769531 439.300781 616.773438 453.90625 626.113281 C 466.621094 634.242188 616.96875 626.15625 651.660156 626.160156 C 655.226562 626.160156 658.195312 625.710938 660.664062 624.890625 C 663.035156 624.09375 664.953125 622.964844 666.472656 621.550781 C 675.390625 613.300781 671.257812 595.605469 670.6875 582.089844 C 669.90625 563.386719 668.613281 544.832031 666.847656 526.308594 " fill-opacity="1" fill-rule="nonzero"/><path fill="rgb(75.289917%, 34.509277%, 37.649536%)" d="M 718.84375 472.886719 C 718.820312 472.789062 718.742188 472.695312 718.636719 472.675781 C 718.605469 472.667969 718.578125 472.6875 718.546875 472.691406 C 718.441406 472.710938 718.34375 472.769531 718.320312 472.878906 C 718.320312 472.878906 718.308594 472.949219 718.273438 473.074219 C 718.265625 473.234375 718.132812 473.296875 718.0625 473.445312 C 717.847656 473.804688 717.394531 474.257812 716.871094 474.816406 C 715.753906 475.921875 714.269531 477.394531 712.78125 478.859375 C 711.296875 480.355469 709.832031 481.890625 708.789062 483.113281 C 708.261719 483.714844 707.859375 484.273438 707.554688 484.632812 C 707.261719 485.007812 707.109375 485.242188 707.109375 485.242188 C 707.066406 485.308594 707.054688 485.414062 707.09375 485.496094 C 707.15625 485.621094 707.308594 485.671875 707.433594 485.609375 C 707.433594 485.609375 708.414062 485.113281 709.761719 484.203125 C 711.105469 483.292969 712.789062 481.9375 714.324219 480.410156 C 715.605469 479.132812 716.761719 477.742188 717.589844 476.457031 C 717.757812 476.199219 717.929688 475.941406 718.0625 475.699219 C 718.480469 474.964844 718.730469 474.273438 718.855469 473.757812 C 718.914062 473.460938 718.929688 473.175781 718.890625 473.078125 C 718.863281 472.949219 718.84375 472.886719 718.84375 472.886719 " fill-opacity="1" fill-rule="nonzero"/><path fill="rgb(75.289917%, 34.509277%, 37.649536%)" d="M 742.574219 430.804688 C 742.523438 430.746094 742.449219 430.707031 742.371094 430.734375 C 742.371094 430.734375 740.910156 431.234375 738.777344 432.125 C 737.71875 432.59375 736.464844 433.09375 735.164062 433.695312 C 733.847656 434.277344 732.472656 434.96875 731.089844 435.609375 C 729.714844 436.25 728.335938 436.890625 727.0625 437.527344 C 726.414062 437.828125 725.824219 438.183594 725.21875 438.445312 C 724.613281 438.710938 724.035156 438.960938 723.507812 439.191406 C 721.398438 440.132812 720.027344 440.851562 720.027344 440.851562 C 719.949219 440.894531 719.902344 440.984375 719.921875 441.066406 C 719.949219 441.179688 720.050781 441.242188 720.160156 441.21875 C 720.160156 441.21875 721.664062 440.875 723.878906 440.21875 C 724.980469 439.882812 726.277344 439.519531 727.609375 438.917969 C 728.953125 438.363281 730.375 437.726562 731.792969 437.089844 C 734.570312 435.75 737.261719 434.25 739.253906 433.09375 C 741.242188 431.929688 742.53125 431.0625 742.53125 431.0625 C 742.597656 431.015625 742.628906 430.929688 742.601562 430.851562 C 742.601562 430.847656 742.605469 430.847656 742.605469 430.847656 C 742.601562 430.828125 742.582031 430.824219 742.574219 430.804688 " fill-opacity="1" fill-rule="nonzero"/><path fill="rgb(75.289917%, 34.509277%, 37.649536%)" d="M 735.964844 449.59375 C 735.933594 449.523438 735.867188 449.472656 735.785156 449.484375 L 735.761719 449.488281 C 735.761719 449.488281 734.972656 449.589844 733.878906 449.871094 C 732.800781 450.1875 731.355469 450.570312 729.914062 451.027344 C 728.5 451.515625 727.089844 452.054688 726.042969 452.523438 C 725.003906 452.992188 724.320312 453.375 724.320312 453.375 C 724.261719 453.414062 724.214844 453.488281 724.214844 453.558594 C 724.21875 453.671875 724.3125 453.757812 724.421875 453.757812 C 724.421875 453.757812 725.210938 453.757812 726.34375 453.578125 C 727.480469 453.394531 728.988281 453.101562 730.433594 452.585938 C 731.152344 452.328125 731.878906 452.082031 732.539062 451.800781 C 733.199219 451.5 733.78125 451.136719 734.296875 450.871094 C 735.304688 450.292969 735.921875 449.820312 735.921875 449.820312 C 735.972656 449.777344 736 449.714844 735.992188 449.644531 C 735.992188 449.644531 735.988281 449.640625 735.988281 449.636719 C 735.984375 449.621094 735.972656 449.609375 735.964844 449.59375 " fill-opacity="1" fill-rule="nonzero"/><path fill="rgb(75.289917%, 34.509277%, 37.649536%)" d="M 713.050781 431.605469 C 713.050781 431.605469 714.289062 431.109375 716.0625 430.242188 C 717.839844 429.367188 720.171875 428.148438 722.4375 426.808594 C 724.714844 425.480469 726.910156 424.03125 728.535156 422.894531 C 730.160156 421.765625 731.191406 420.921875 731.191406 420.921875 C 731.25 420.871094 731.277344 420.785156 731.246094 420.710938 C 731.242188 420.699219 731.230469 420.695312 731.226562 420.691406 C 731.222656 420.683594 731.21875 420.683594 731.214844 420.679688 C 731.164062 420.609375 731.085938 420.578125 731.007812 420.605469 C 731.007812 420.605469 729.769531 421.101562 727.988281 421.96875 C 726.214844 422.835938 723.875 424.050781 721.609375 425.394531 C 719.339844 426.71875 717.136719 428.167969 715.511719 429.296875 C 713.890625 430.425781 712.851562 431.265625 712.851562 431.265625 C 712.789062 431.320312 712.761719 431.414062 712.792969 431.496094 C 712.835938 431.597656 712.949219 431.644531 713.050781 431.605469 " fill-opacity="1" fill-rule="nonzero"/><g clip-path="url(#id1)"><path fill="rgb(11.369324%, 25.878906%, 32.548523%)" d="M 769.816406 486.878906 L 705.570312 486.878906 C 696.117188 494.867188 682.132812 505.128906 665.691406 514.945312 C 665.859375 516.542969 666.015625 518.140625 666.175781 519.738281 L 689.742188 519.738281 C 695.148438 519.738281 698.496094 514.050781 698.496094 508.785156 L 698.496094 497.835938 C 698.496094 496.019531 699.964844 494.546875 701.777344 494.546875 C 703.59375 494.546875 705.0625 496.015625 705.0625 497.835938 L 705.0625 508.785156 C 705.0625 517.398438 699.332031 526.308594 689.742188 526.308594 L 666.847656 526.308594 C 668.613281 544.832031 669.90625 563.386719 670.6875 582.089844 C 671.257812 595.605469 675.390625 613.300781 666.472656 621.550781 C 664.953125 622.964844 663.035156 624.09375 660.664062 624.890625 L 769.816406 624.890625 C 776.363281 624.890625 781.652344 619.617188 781.652344 612.441406 L 781.652344 499.871094 C 781.652344 492.695312 776.363281 486.878906 769.816406 486.878906 " fill-opacity="1" fill-rule="nonzero"/></g><path fill="rgb(11.369324%, 25.878906%, 32.548523%)" d="M 620.753906 73.832031 C 614.308594 72.363281 598.503906 72.777344 592.359375 70.800781 C 581.164062 67.191406 575.601562 52.242188 565.363281 46.75 C 552.128906 39.652344 535.105469 40.597656 522.816406 49.585938 C 512.773438 56.929688 505.226562 67.941406 493.089844 72.125 C 478.921875 77.011719 463.285156 71.199219 449.582031 78.515625 C 437.757812 85.140625 435.394531 92.71875 434.449219 105.023438 C 433.691406 112.363281 434.472656 119.898438 433.15625 127.179688 C 431.703125 135.195312 424.957031 139.609375 421.769531 146.660156 C 417.988281 155.019531 421.085938 163.882812 426.953125 170.40625 C 431.933594 176.160156 441.941406 184.914062 441.941406 184.914062 C 441.941406 184.914062 451.363281 190.441406 465.863281 191.507812 C 466.148438 192.105469 466.460938 192.707031 466.703125 193.378906 C 467.011719 194.125 467.265625 194.929688 467.507812 195.753906 C 467.78125 196.566406 467.933594 197.4375 468.140625 198.285156 C 468.492188 200.007812 468.746094 201.75 468.90625 203.410156 C 468.910156 203.453125 468.910156 203.496094 468.914062 203.542969 C 468.527344 203.398438 467.988281 203.253906 467.492188 202.976562 C 467.195312 202.832031 466.863281 202.675781 466.519531 202.507812 C 466.171875 202.359375 465.832031 202.085938 465.457031 201.871094 C 464.695312 201.445312 463.996094 200.828125 463.253906 200.257812 C 462.597656 199.609375 461.875 198.992188 461.347656 198.285156 C 460.757812 197.628906 460.308594 196.941406 459.929688 196.347656 C 459.507812 195.773438 459.316406 195.207031 459.101562 194.851562 C 458.914062 194.484375 458.808594 194.273438 458.808594 194.273438 L 458.78125 194.21875 C 458.675781 194.007812 458.421875 193.90625 458.195312 194 C 457.957031 194.097656 457.847656 194.367188 457.941406 194.609375 C 457.941406 194.609375 458.035156 194.835938 458.199219 195.246094 C 458.386719 195.640625 458.554688 196.261719 458.949219 196.902344 C 459.304688 197.570312 459.726562 198.347656 460.300781 199.101562 C 460.808594 199.90625 461.519531 200.625 462.1875 201.394531 C 462.933594 202.078125 463.648438 202.808594 464.441406 203.34375 C 464.835938 203.625 465.171875 203.933594 465.574219 204.148438 C 465.96875 204.382812 466.335938 204.597656 466.675781 204.800781 C 467.371094 205.230469 467.90625 205.382812 468.300781 205.589844 C 468.6875 205.757812 468.914062 205.859375 468.914062 205.859375 C 468.9375 205.875 468.96875 205.882812 468.992188 205.898438 C 469.023438 205.90625 469.054688 205.902344 469.089844 205.910156 C 469.125 206.632812 469.152344 207.324219 469.167969 207.964844 C 469.183594 209.304688 469.1875 210.429688 469.144531 211.214844 C 469.09375 212 469.082031 212.457031 469.082031 212.457031 C 469.082031 212.558594 469.144531 212.664062 469.246094 212.703125 C 469.367188 212.753906 469.511719 212.691406 469.5625 212.5625 C 469.5625 212.5625 470.238281 210.820312 470.625 208.050781 C 470.820312 206.671875 470.925781 205.042969 470.882812 203.292969 C 470.863281 201.546875 470.625 199.679688 470.28125 197.835938 C 470.042969 196.921875 469.855469 196 469.542969 195.117188 C 469.277344 194.226562 468.90625 193.378906 468.523438 192.574219 C 468.382812 192.242188 468.207031 191.933594 468.035156 191.632812 C 473.199219 191.839844 478.9375 191.460938 485.078125 190.089844 C 490.632812 188.84375 496.53125 187.390625 502.640625 185.792969 C 501.648438 189.027344 501.113281 192.457031 501.113281 196.015625 C 501.113281 215.292969 516.722656 230.921875 535.976562 230.921875 C 552.113281 230.921875 565.679688 219.945312 569.65625 205.046875 C 574.214844 208.777344 579.734375 211.359375 585.785156 212.398438 C 585.726562 212.570312 585.664062 212.738281 585.585938 212.902344 C 585.355469 213.582031 585.023438 214.199219 584.695312 214.785156 C 584.382812 215.386719 583.941406 215.855469 583.613281 216.371094 C 583.238281 216.839844 582.835938 217.222656 582.507812 217.605469 C 582.1875 218 581.820312 218.242188 581.554688 218.496094 C 581.003906 219 580.691406 219.285156 580.691406 219.285156 C 580.691406 219.285156 581.085938 219.152344 581.789062 218.863281 C 582.125 218.707031 582.589844 218.582031 583.019531 218.269531 C 583.453125 217.976562 584 217.6875 584.503906 217.261719 C 584.976562 216.796875 585.582031 216.359375 586.03125 215.730469 C 586.507812 215.121094 587.015625 214.46875 587.355469 213.671875 C 587.527344 213.359375 587.664062 213.027344 587.789062 212.683594 C 589.070312 212.824219 590.375 212.902344 591.695312 212.902344 C 610.949219 212.902344 626.5625 197.28125 626.5625 178.003906 C 626.5625 168.941406 623.109375 160.6875 617.449219 154.480469 C 625.007812 153.378906 629.441406 153.820312 629.332031 156.558594 C 630.117188 154.554688 630.796875 152.59375 631.164062 151.820312 C 632.714844 148.597656 634.277344 145.378906 635.828125 142.15625 C 638.550781 136.476562 641.347656 130.765625 643.234375 124.738281 C 646.875 113.085938 646.390625 100.175781 639.675781 89.6875 C 635.164062 82.636719 629.195312 75.761719 620.753906 73.832031 " fill-opacity="1" fill-rule="nonzero"/><path fill="rgb(11.369324%, 25.878906%, 32.548523%)" d="M 587.75 313.054688 C 587.402344 313.183594 587.460938 313.148438 587.332031 313.144531 C 587.226562 313.132812 587.066406 313.089844 586.882812 312.992188 C 586.527344 312.808594 586.117188 312.511719 585.722656 312.179688 C 584.910156 311.492188 584.203125 310.664062 583.355469 309.753906 C 582.546875 308.902344 581.730469 308.058594 580.925781 307.226562 C 580.125 306.414062 579.335938 305.617188 578.570312 304.839844 C 577.820312 304.046875 577.015625 303.367188 576.339844 302.613281 C 575.65625 301.867188 575.007812 301.167969 574.414062 300.519531 C 572.003906 297.945312 570.292969 296.3125 570.292969 296.3125 C 570.261719 296.285156 570.21875 296.3125 570.175781 296.300781 C 570.160156 296.296875 570.167969 296.273438 570.152344 296.269531 C 570.113281 296.257812 570.074219 296.277344 570.035156 296.285156 C 570.011719 296.296875 569.988281 296.269531 569.964844 296.28125 C 569.910156 296.316406 569.871094 296.378906 569.859375 296.441406 C 569.859375 296.445312 569.855469 296.445312 569.855469 296.445312 C 569.855469 296.445312 569.152344 299.285156 567.769531 303.433594 C 567.105469 305.515625 566.203125 307.898438 565.171875 310.394531 C 564.113281 312.863281 562.902344 315.523438 561.207031 317.652344 C 560.429688 318.695312 559.277344 319.605469 558.484375 319.761719 C 557.261719 319.894531 556.042969 319.640625 554.882812 319.132812 C 552.574219 318.113281 550.550781 316.492188 548.792969 315.1875 C 547.046875 313.839844 545.441406 312.847656 544.261719 312.246094 C 543.835938 312.03125 543.496094 311.890625 543.203125 311.785156 C 544.265625 312.847656 545.320312 313.921875 546.367188 314.996094 C 546.84375 315.410156 547.335938 315.84375 547.871094 316.324219 C 549.546875 317.730469 551.378906 319.617188 554.0625 320.945312 C 555.382812 321.585938 557.019531 322.0625 558.671875 321.886719 C 560.757812 321.484375 561.878906 320.21875 562.914062 319.023438 C 564.847656 316.515625 566.042969 313.742188 567.015625 311.121094 C 567.988281 308.496094 568.628906 305.976562 569.15625 303.820312 C 569.683594 301.664062 569.941406 299.824219 570.132812 298.550781 C 570.210938 297.992188 570.257812 297.5625 570.289062 297.226562 C 570.816406 298.007812 571.863281 299.523438 573.300781 301.457031 C 573.832031 302.164062 574.410156 302.925781 575.015625 303.730469 C 575.621094 304.542969 576.355469 305.335938 577.09375 306.160156 C 577.839844 306.988281 578.613281 307.84375 579.398438 308.707031 C 580.1875 309.550781 580.984375 310.410156 581.789062 311.265625 C 582.550781 312.066406 583.394531 313.011719 584.363281 313.804688 C 584.847656 314.210938 585.378906 314.589844 586.050781 314.875 C 586.378906 315.023438 586.769531 315.136719 587.21875 315.160156 C 587.59375 315.203125 588.070312 315.058594 588.300781 314.964844 C 588.277344 314.210938 588.253906 313.457031 588.226562 312.714844 C 588.039062 312.863281 587.871094 312.980469 587.75 313.054688 " fill-opacity="1" fill-rule="nonzero"/><path fill="rgb(11.369324%, 25.878906%, 32.548523%)" d="M 575.359375 310.90625 C 576.796875 310.90625 577.96875 312.070312 577.96875 313.511719 C 577.96875 314.953125 576.796875 316.121094 575.359375 316.121094 C 573.917969 316.121094 572.753906 314.953125 572.753906 313.511719 C 572.753906 312.070312 573.917969 310.90625 575.359375 310.90625 " fill-opacity="1" fill-rule="nonzero"/><path fill="rgb(11.369324%, 25.878906%, 32.548523%)" d="M 579.738281 326.234375 C 581.179688 326.234375 582.34375 327.40625 582.34375 328.847656 C 582.34375 330.289062 581.179688 331.457031 579.738281 331.457031 C 578.296875 331.457031 577.128906 330.289062 577.128906 328.847656 C 577.128906 327.40625 578.296875 326.234375 579.738281 326.234375 " fill-opacity="1" fill-rule="nonzero"/><path fill="rgb(11.369324%, 25.878906%, 32.548523%)" d="M 561.335938 285.605469 C 562.851562 285.515625 564.308594 285.277344 565.726562 285.101562 C 567.144531 284.941406 568.5 284.710938 569.800781 284.457031 C 572.414062 284.046875 574.757812 283.417969 576.839844 282.917969 C 578.914062 282.347656 580.703125 281.785156 582.179688 281.351562 C 584.949219 280.359375 586.558594 279.78125 586.6875 279.734375 C 586.691406 279.734375 586.710938 279.726562 586.710938 279.726562 C 586.839844 279.679688 586.910156 279.542969 586.875 279.410156 C 586.871094 279.398438 586.863281 279.394531 586.855469 279.390625 C 586.8125 279.265625 586.683594 279.191406 586.550781 279.226562 C 586.550781 279.226562 584.867188 279.707031 581.917969 280.542969 C 580.429688 280.894531 578.648438 281.355469 576.574219 281.800781 C 574.488281 282.183594 572.148438 282.671875 569.5625 283.011719 C 568.277344 283.21875 566.933594 283.398438 565.53125 283.511719 C 564.128906 283.636719 562.695312 283.828125 561.203125 283.867188 C 558.226562 284.054688 555.085938 284.074219 551.839844 284.003906 C 548.597656 283.902344 545.246094 283.65625 541.871094 283.179688 C 538.5 282.703125 535.09375 282.070312 531.761719 281.164062 L 529.25 280.527344 L 526.785156 279.753906 C 525.132812 279.269531 523.527344 278.675781 521.945312 278.050781 C 520.339844 277.480469 518.8125 276.765625 517.292969 276.074219 C 515.757812 275.429688 514.320312 274.609375 512.886719 273.859375 C 510.085938 272.359375 507.367188 270.570312 504.785156 269.074219 C 502.28125 267.445312 500.011719 265.789062 497.859375 264.316406 C 495.832031 262.769531 493.882812 261.234375 492.414062 259.78125 C 490.832031 258.394531 489.644531 256.964844 488.59375 255.863281 C 487.582031 254.730469 486.847656 253.78125 486.316406 253.160156 C 485.792969 252.53125 485.511719 252.191406 485.511719 252.191406 L 485.503906 252.183594 C 485.425781 252.085938 485.285156 252.066406 485.179688 252.140625 C 485.066406 252.21875 485.039062 252.371094 485.117188 252.480469 C 485.117188 252.480469 485.210938 252.605469 485.363281 252.820312 C 485.484375 252.992188 485.640625 253.214844 485.851562 253.507812 C 486.347656 254.171875 487 255.199219 487.972656 256.390625 C 488.976562 257.5625 490.089844 259.070312 491.640625 260.59375 C 493.125 262.222656 494.890625 263.773438 496.988281 265.46875 C 499.117188 267.03125 501.390625 268.808594 503.878906 270.539062 C 506.445312 272.140625 508.964844 273.96875 511.945312 275.578125 C 513.40625 276.363281 514.871094 277.21875 516.441406 277.902344 C 517.988281 278.628906 519.550781 279.382812 521.1875 279.984375 C 522.800781 280.644531 524.441406 281.273438 526.136719 281.785156 C 527.804688 282.371094 529.503906 282.867188 531.226562 283.289062 C 534.65625 284.183594 538.15625 284.792969 541.609375 285.238281 C 545.0625 285.6875 548.492188 285.910156 551.800781 285.980469 C 555.109375 286.042969 558.316406 285.886719 561.335938 285.605469 " fill-opacity="1" fill-rule="nonzero"/><path fill="rgb(11.369324%, 25.878906%, 32.548523%)" d="M 553.003906 231.539062 L 551.949219 233.464844 C 559.503906 237.613281 568.578125 240.53125 577.609375 240.53125 C 586.902344 240.53125 596.144531 237.441406 603.605469 229.414062 L 602.007812 227.921875 C 588.140625 242.824219 567.601562 239.570312 553.003906 231.539062 " fill-opacity="1" fill-rule="nonzero"/><path fill="rgb(84.709167%, 52.938843%, 50.19989%)" d="M 587.496094 287.378906 C 587.5 287.398438 587.6875 287.824219 588 288.554688 C 588.054688 288.640625 588.089844 288.71875 588.15625 288.8125 C 587.738281 287.894531 587.5 287.394531 587.496094 287.378906 " fill-opacity="1" fill-rule="nonzero"/><path fill="rgb(84.709167%, 52.938843%, 50.19989%)" d="M 582.179688 281.355469 C 580.707031 281.792969 578.914062 282.351562 576.839844 282.917969 C 574.757812 283.421875 572.414062 284.050781 569.800781 284.457031 C 568.5 284.710938 567.144531 284.941406 565.726562 285.101562 C 564.308594 285.277344 562.851562 285.515625 561.335938 285.605469 C 558.316406 285.886719 555.109375 286.042969 551.796875 285.980469 C 548.480469 285.910156 545.058594 285.6875 541.605469 285.238281 C 538.152344 284.792969 534.652344 284.179688 531.222656 283.289062 C 529.496094 282.867188 527.800781 282.371094 526.132812 281.785156 C 524.4375 281.273438 522.796875 280.644531 521.183594 279.984375 C 519.542969 279.382812 517.980469 278.628906 516.433594 277.902344 C 514.867188 277.21875 513.402344 276.363281 511.941406 275.578125 C 508.960938 273.96875 506.441406 272.140625 503.871094 270.539062 C 501.386719 268.808594 499.113281 267.03125 496.984375 265.46875 C 494.886719 263.773438 493.121094 262.222656 491.636719 260.59375 C 490.085938 259.070312 488.964844 257.5625 487.964844 256.390625 C 486.996094 255.199219 486.34375 254.171875 485.847656 253.507812 C 485.636719 253.214844 485.476562 252.992188 485.355469 252.820312 C 485.71875 256.347656 485.90625 259.871094 485.898438 263.371094 L 485.90625 263.363281 C 490.6875 266.292969 495.453125 269.246094 500.296875 272.070312 C 516.394531 281.484375 531.363281 288.089844 551.234375 292.082031 C 559.191406 293.671875 569.410156 294.375 576.226562 289.488281 C 579.589844 287.066406 582.921875 282.792969 586.785156 281.246094 C 586.792969 281.246094 586.796875 281.25 586.804688 281.253906 C 586.761719 280.746094 586.722656 280.238281 586.6875 279.738281 C 586.558594 279.785156 584.949219 280.363281 582.179688 281.355469 " fill-opacity="1" fill-rule="nonzero"/><path fill="rgb(84.709167%, 52.938843%, 50.19989%)" d="M 620.84375 167.933594 C 618.820312 169.507812 615.445312 170.355469 612.957031 170.855469 C 607.703125 171.917969 603.597656 173.335938 599.375 176.90625 C 596.203125 179.585938 589.382812 182.9375 590.585938 175.644531 C 591.578125 170.097656 599.699219 166.007812 604.363281 164.242188 C 607.863281 162.914062 612.121094 162.046875 615.867188 162.082031 C 617.308594 162.097656 619.644531 162.8125 621.03125 163.933594 C 622.339844 164.992188 622.796875 166.414062 620.84375 167.933594 Z M 619.109375 185.703125 C 618.417969 185.65625 617.433594 185.683594 616.324219 185.691406 C 615.765625 185.726562 615.15625 185.769531 614.511719 185.8125 C 613.878906 185.898438 613.21875 185.996094 612.550781 186.109375 C 611.882812 186.261719 611.199219 186.417969 610.53125 186.652344 C 609.847656 186.835938 609.210938 187.160156 608.566406 187.457031 C 607.9375 187.78125 607.3125 188.121094 606.75 188.546875 C 606.195312 188.964844 605.621094 189.375 605.148438 189.855469 C 604.144531 190.765625 603.363281 191.800781 602.703125 192.710938 C 602.066406 193.640625 601.574219 194.46875 601.25 195.066406 C 600.914062 195.671875 600.722656 196.015625 600.722656 196.015625 C 600.722656 196.015625 600.75 195.621094 600.835938 194.929688 C 600.941406 194.246094 601.144531 193.253906 601.59375 192.125 C 601.808594 191.554688 602.101562 190.953125 602.457031 190.347656 C 602.824219 189.742188 603.222656 189.105469 603.75 188.527344 C 604.25 187.9375 604.820312 187.347656 605.484375 186.859375 C 606.128906 186.339844 606.84375 185.902344 607.589844 185.5 C 608.359375 185.167969 609.125 184.8125 609.925781 184.628906 C 610.707031 184.367188 611.519531 184.308594 612.28125 184.207031 C 613.824219 184.078125 615.242188 184.21875 616.429688 184.445312 C 617.632812 184.703125 618.574219 184.996094 619.195312 185.28125 C 619.832031 185.539062 620.195312 185.703125 620.195312 185.703125 C 620.195312 185.703125 619.796875 185.71875 619.109375 185.703125 Z M 577.609375 240.53125 C 568.578125 240.53125 559.503906 237.613281 551.949219 233.464844 L 553.003906 231.539062 C 567.601562 239.570312 588.140625 242.828125 602.007812 227.921875 L 603.605469 229.414062 C 596.144531 237.441406 586.902344 240.53125 577.609375 240.53125 Z M 549.390625 191.234375 C 548.425781 190.589844 547.359375 189.988281 546.21875 189.457031 C 543.929688 188.425781 541.355469 187.578125 538.722656 187.339844 C 538.355469 187.292969 538.121094 187.269531 537.753906 187.265625 C 537.414062 187.261719 537.046875 187.234375 536.726562 187.242188 C 536.105469 187.28125 535.492188 187.296875 534.855469 187.414062 C 533.597656 187.59375 532.367188 187.898438 531.246094 188.382812 C 528.964844 189.261719 527.0625 190.648438 525.566406 191.972656 C 524.828125 192.65625 524.222656 193.355469 523.671875 193.96875 C 523.140625 194.601562 522.6875 195.167969 522.351562 195.664062 C 521.667969 196.652344 521.296875 197.238281 521.296875 197.238281 L 521.289062 197.246094 C 521.214844 197.363281 521.0625 197.394531 520.953125 197.320312 C 520.851562 197.261719 520.816406 197.136719 520.855469 197.03125 C 520.855469 197.03125 520.917969 196.867188 521.035156 196.554688 C 521.15625 196.246094 521.300781 195.773438 521.589844 195.222656 C 521.851562 194.652344 522.214844 193.988281 522.660156 193.230469 C 523.121094 192.480469 523.726562 191.695312 524.433594 190.867188 C 525.871094 189.246094 527.859375 187.519531 530.429688 186.421875 C 531.699219 185.855469 533.097656 185.460938 534.546875 185.25 C 535.261719 185.132812 536.027344 185.113281 536.792969 185.089844 C 537.167969 185.085938 537.492188 185.121094 537.84375 185.132812 C 538.175781 185.140625 538.632812 185.179688 538.960938 185.230469 C 541.867188 185.609375 544.652344 186.5625 547.019531 187.863281 C 549.390625 189.167969 551.402344 190.710938 552.894531 192.265625 C 554.371094 193.839844 555.371094 195.320312 555.964844 196.433594 C 556.292969 196.980469 556.449219 197.425781 556.59375 197.71875 C 556.726562 198.019531 556.800781 198.179688 556.800781 198.179688 L 556.804688 198.191406 C 556.867188 198.320312 556.804688 198.476562 556.675781 198.539062 C 556.542969 198.601562 556.398438 198.550781 556.332031 198.4375 C 556.332031 198.4375 555.988281 197.8125 555.28125 196.84375 C 554.628906 195.875 553.515625 194.546875 551.984375 193.222656 C 551.210938 192.558594 550.363281 191.867188 549.390625 191.234375 Z M 528.910156 165.292969 C 531.773438 162.328125 542.25 163.21875 545.875 164.085938 C 550.707031 165.308594 559.242188 168.449219 560.855469 173.851562 C 562.878906 180.960938 555.722656 178.40625 552.269531 176.105469 C 547.667969 173.039062 543.425781 172.09375 538.089844 171.632812 C 535.632812 171.328125 525.210938 170.027344 528.910156 165.292969 Z M 578.476562 201.398438 C 578.851562 201.367188 579.273438 201.207031 579.820312 201.261719 C 580.347656 201.292969 580.992188 201.25 581.644531 201.390625 C 582.289062 201.582031 583.058594 201.628906 583.742188 202.046875 C 584.09375 202.230469 584.480469 202.390625 584.839844 202.613281 C 585.179688 202.867188 585.507812 203.148438 585.851562 203.433594 C 586.457031 204.066406 587.128906 204.761719 587.484375 205.636719 C 587.949219 206.46875 588.164062 207.417969 588.316406 208.34375 C 588.339844 208.820312 588.394531 209.296875 588.375 209.761719 L 588.21875 211.148438 C 588.011719 212.035156 587.773438 212.921875 587.351562 213.671875 C 587.015625 214.46875 586.507812 215.121094 586.027344 215.730469 C 585.578125 216.359375 584.972656 216.796875 584.503906 217.261719 C 583.996094 217.6875 583.453125 217.976562 583.011719 218.269531 C 582.589844 218.582031 582.125 218.707031 581.785156 218.867188 C 581.085938 219.152344 580.6875 219.289062 580.6875 219.289062 C 580.6875 219.289062 581.003906 219 581.554688 218.496094 C 581.816406 218.242188 582.183594 218 582.503906 217.605469 C 582.835938 217.222656 583.238281 216.839844 583.613281 216.371094 C 583.933594 215.859375 584.378906 215.386719 584.695312 214.785156 C 585.023438 214.199219 585.355469 213.582031 585.585938 212.902344 C 585.898438 212.257812 585.957031 211.511719 586.136719 210.800781 L 586.222656 209.703125 C 586.226562 209.339844 586.164062 208.972656 586.144531 208.609375 C 586.046875 207.902344 585.917969 207.164062 585.582031 206.542969 C 585.328125 205.878906 584.90625 205.308594 584.480469 204.777344 C 584.238281 204.539062 583.996094 204.308594 583.769531 204.054688 C 583.511719 203.839844 583.230469 203.671875 582.960938 203.472656 C 582.457031 203.050781 581.828125 202.890625 581.316406 202.597656 C 580.773438 202.367188 580.246094 202.265625 579.773438 202.097656 C 579.3125 201.917969 578.835938 201.917969 578.476562 201.835938 C 577.742188 201.695312 577.324219 201.617188 577.324219 201.617188 C 577.324219 201.617188 577.746094 201.535156 578.476562 201.398438 Z M 470.625 208.050781 C 470.238281 210.820312 469.5625 212.5625 469.5625 212.5625 C 469.511719 212.6875 469.367188 212.753906 469.238281 212.703125 C 469.144531 212.664062 469.082031 212.558594 469.082031 212.457031 C 469.082031 212.457031 469.09375 212 469.140625 211.214844 C 469.1875 210.429688 469.183594 209.304688 469.167969 207.957031 C 469.152344 207.324219 469.125 206.632812 469.089844 205.90625 C 469.054688 205.902344 469.023438 205.90625 468.992188 205.898438 C 468.96875 205.882812 468.9375 205.875 468.910156 205.859375 C 468.910156 205.859375 468.6875 205.757812 468.300781 205.585938 C 467.90625 205.382812 467.371094 205.226562 466.675781 204.800781 C 466.335938 204.59375 465.964844 204.378906 465.574219 204.148438 C 465.171875 203.933594 464.835938 203.621094 464.441406 203.34375 C 463.648438 202.808594 462.933594 202.074219 462.1875 201.394531 C 461.519531 200.625 460.808594 199.90625 460.296875 199.097656 C 459.722656 198.34375 459.300781 197.570312 458.949219 196.902344 C 458.554688 196.261719 458.386719 195.636719 458.199219 195.242188 C 458.035156 194.835938 457.9375 194.601562 457.9375 194.601562 C 457.84375 194.367188 457.957031 194.09375 458.195312 193.996094 C 458.421875 193.90625 458.675781 194 458.78125 194.21875 L 458.808594 194.273438 C 458.808594 194.273438 458.914062 194.480469 459.101562 194.851562 C 459.316406 195.207031 459.503906 195.769531 459.925781 196.34375 C 460.308594 196.941406 460.753906 197.628906 461.347656 198.285156 C 461.875 198.992188 462.597656 199.601562 463.253906 200.253906 C 463.992188 200.828125 464.695312 201.445312 465.457031 201.871094 C 465.828125 202.085938 466.167969 202.359375 466.519531 202.503906 C 466.863281 202.675781 467.191406 202.832031 467.492188 202.976562 C 467.984375 203.253906 468.523438 203.398438 468.914062 203.542969 C 468.910156 203.496094 468.90625 203.453125 468.898438 203.410156 C 468.738281 201.75 468.492188 200.007812 468.132812 198.285156 C 467.933594 197.4375 467.78125 196.5625 467.5 195.753906 C 467.261719 194.929688 467.011719 194.125 466.699219 193.378906 C 466.421875 192.609375 466.046875 191.929688 465.738281 191.25 C 465.335938 190.648438 465.058594 189.976562 464.636719 189.496094 C 464.246094 188.988281 463.902344 188.492188 463.535156 188.152344 C 463.171875 187.785156 462.882812 187.429688 462.53125 187.214844 C 461.886719 186.742188 461.53125 186.449219 461.53125 186.449219 C 461.414062 186.355469 461.398438 186.191406 461.492188 186.078125 C 461.566406 185.988281 461.6875 185.957031 461.792969 186 C 461.792969 186 462.21875 186.160156 462.953125 186.480469 C 463.324219 186.609375 463.742188 186.921875 464.242188 187.253906 C 464.773438 187.570312 465.25 188.019531 465.757812 188.535156 C 466.316406 189.011719 466.730469 189.675781 467.25 190.324219 C 467.667969 191.023438 468.175781 191.746094 468.519531 192.570312 C 468.90625 193.378906 469.273438 194.226562 469.539062 195.117188 C 469.855469 196 470.042969 196.921875 470.277344 197.835938 C 470.621094 199.679688 470.859375 201.539062 470.882812 203.289062 C 470.925781 205.039062 470.820312 206.667969 470.625 208.050781 Z M 628.796875 164.449219 C 629.023438 162.199219 629.121094 159.957031 629.265625 157.703125 C 629.304688 157.058594 629.359375 156.417969 629.464844 155.785156 C 629.773438 153.898438 629.953125 151.96875 630.089844 150.066406 C 630.222656 148.21875 630.257812 146.363281 630.175781 144.515625 C 630.09375 142.703125 629.910156 140.894531 629.621094 139.097656 C 629.320312 137.242188 628.90625 135.40625 628.398438 133.597656 C 627.851562 131.664062 627.199219 129.769531 626.535156 127.875 C 626.453125 127.644531 626.378906 127.40625 626.289062 127.179688 C 579.734375 110.136719 504.597656 136 504.597656 136 C 504.597656 136 504.332031 147.289062 499.308594 163.390625 C 497.414062 169.460938 494.273438 176.957031 491.5625 180.535156 C 488.851562 184.113281 485.222656 185.769531 479.597656 188.460938 C 473.710938 174.328125 451.363281 170.789062 441.929688 184.925781 C 428.511719 204.5625 451.316406 223.289062 470.625 226.003906 C 475.105469 235.097656 479.445312 244.222656 485.171875 252.140625 C 485.273438 252.066406 485.417969 252.085938 485.507812 252.195312 C 485.507812 252.195312 485.785156 252.53125 486.304688 253.160156 C 486.84375 253.78125 487.570312 254.734375 488.589844 255.863281 C 489.640625 256.964844 490.828125 258.394531 492.40625 259.78125 C 493.875 261.234375 495.824219 262.769531 497.851562 264.320312 C 500 265.789062 502.273438 267.449219 504.777344 269.074219 C 507.359375 270.570312 510.078125 272.359375 512.878906 273.863281 C 514.316406 274.617188 515.746094 275.429688 517.289062 276.074219 C 518.800781 276.769531 520.332031 277.484375 521.933594 278.050781 C 523.519531 278.679688 525.121094 279.269531 526.777344 279.753906 L 529.246094 280.527344 L 531.753906 281.167969 C 535.089844 282.070312 538.496094 282.703125 541.867188 283.179688 C 545.238281 283.65625 548.585938 283.90625 551.835938 284.003906 C 555.078125 284.074219 558.21875 284.054688 561.195312 283.871094 C 562.691406 283.828125 564.125 283.636719 565.523438 283.511719 C 566.921875 283.402344 568.265625 283.21875 569.554688 283.011719 C 572.136719 282.671875 574.480469 282.183594 576.570312 281.800781 C 578.636719 281.355469 580.425781 280.894531 581.90625 280.542969 C 584.855469 279.707031 586.539062 279.230469 586.539062 279.230469 C 586.671875 279.191406 586.800781 279.265625 586.851562 279.390625 C 594.8125 276.597656 602.40625 272.828125 609.304688 268.117188 C 630.847656 253.003906 640.445312 228.496094 633.394531 204.125 C 630.433594 193.863281 627.632812 175.789062 628.796875 164.449219 " fill-opacity="1" fill-rule="nonzero"/><path fill="rgb(84.709167%, 52.938843%, 50.19989%)" d="M 737.894531 449.269531 C 737.257812 449.496094 736.632812 449.585938 735.988281 449.636719 C 735.992188 449.640625 735.992188 449.640625 735.996094 449.644531 C 736.007812 449.714844 735.972656 449.777344 735.921875 449.8125 C 735.921875 449.8125 735.308594 450.285156 734.296875 450.867188 C 733.785156 451.136719 733.199219 451.5 732.539062 451.800781 C 731.878906 452.078125 731.152344 452.328125 730.433594 452.585938 C 728.988281 453.101562 727.480469 453.394531 726.34375 453.574219 C 725.210938 453.757812 724.425781 453.757812 724.425781 453.757812 C 724.3125 453.757812 724.21875 453.671875 724.21875 453.558594 C 724.214844 453.488281 724.261719 453.414062 724.320312 453.375 C 724.320312 453.375 725.007812 452.992188 726.050781 452.519531 C 727.089844 452.054688 728.5 451.511719 729.917969 451.027344 C 731.355469 450.570312 732.800781 450.179688 733.882812 449.871094 C 734.980469 449.589844 735.769531 449.488281 735.769531 449.488281 L 735.785156 449.484375 C 735.867188 449.472656 735.933594 449.523438 735.96875 449.59375 C 738.738281 448.382812 741.425781 446.902344 743.769531 445.132812 C 749.191406 441.035156 758.132812 432.382812 749.003906 430.148438 C 747.101562 429.679688 744.898438 430.046875 742.605469 430.851562 C 742.632812 430.929688 742.597656 431.015625 742.53125 431.0625 C 742.53125 431.0625 741.25 431.929688 739.257812 433.09375 C 737.265625 434.25 734.574219 435.75 731.796875 437.089844 C 730.375 437.726562 728.957031 438.363281 727.613281 438.917969 C 726.28125 439.519531 724.984375 439.882812 723.882812 440.21875 C 721.667969 440.875 720.164062 441.21875 720.164062 441.21875 C 720.054688 441.242188 719.949219 441.179688 719.925781 441.066406 C 719.902344 440.984375 719.953125 440.894531 720.03125 440.851562 C 720.03125 440.851562 721.402344 440.132812 723.511719 439.191406 C 724.039062 438.960938 724.613281 438.710938 725.21875 438.445312 C 725.828125 438.183594 726.421875 437.828125 727.066406 437.527344 C 728.34375 436.890625 729.71875 436.25 731.09375 435.609375 C 732.472656 434.96875 733.851562 434.277344 735.164062 433.695312 C 736.46875 433.09375 737.722656 432.59375 738.78125 432.125 C 740.914062 431.234375 742.375 430.734375 742.375 430.734375 C 742.453125 430.707031 742.527344 430.746094 742.574219 430.804688 C 743.359375 430.246094 744.128906 429.667969 744.855469 429.035156 C 746.675781 427.449219 748.824219 425.351562 749.332031 422.878906 C 750.457031 417.335938 745.503906 414.332031 740.582031 416.152344 C 737.367188 417.335938 734.269531 418.941406 731.230469 420.6875 C 731.234375 420.695312 731.246094 420.699219 731.25 420.707031 C 731.277344 420.785156 731.253906 420.871094 731.195312 420.921875 C 731.195312 420.921875 730.164062 421.765625 728.539062 422.894531 C 726.914062 424.03125 724.714844 425.476562 722.445312 426.808594 C 720.179688 428.148438 717.84375 429.367188 716.070312 430.238281 C 714.292969 431.109375 713.054688 431.605469 713.054688 431.605469 C 712.949219 431.644531 712.839844 431.597656 712.796875 431.492188 C 712.765625 431.414062 712.792969 431.320312 712.859375 431.265625 C 712.859375 431.265625 713.890625 430.425781 715.511719 429.296875 C 717.140625 428.167969 719.34375 426.714844 721.613281 425.394531 C 723.878906 424.050781 726.214844 422.835938 727.992188 421.964844 C 729.773438 421.09375 731.007812 420.605469 731.007812 420.605469 C 731.085938 420.570312 731.167969 420.609375 731.21875 420.671875 C 733.753906 418.875 736.085938 416.753906 737.238281 414.277344 C 738.863281 410.796875 738.738281 407.96875 734.667969 406.824219 C 727.1875 404.144531 706.011719 419.417969 698.648438 422.203125 C 701.417969 416.402344 704.964844 410.132812 701.921875 405.710938 C 700.519531 403.664062 696.097656 404.574219 693.949219 405.425781 C 690.332031 406.847656 687.90625 409.746094 685.941406 413.265625 C 683.570312 417.503906 681.867188 422.648438 679.628906 427.269531 C 679.65625 427.304688 679.6875 427.34375 679.710938 427.371094 C 679.839844 427.539062 679.914062 427.625 679.914062 427.625 C 679.996094 427.726562 679.980469 427.875 679.886719 427.964844 C 686.25 435.460938 709.679688 457.574219 716.65625 468.652344 C 718.75 468.402344 720.6875 468.085938 722.296875 467.742188 C 729.035156 466.316406 730.0625 465.667969 733.628906 464.390625 C 741.175781 461.6875 747.296875 459.195312 749.335938 454.574219 C 753.039062 446.1875 742.511719 447.601562 737.894531 449.269531 " fill-opacity="1" fill-rule="nonzero"/></svg>